<?xml version="1.0" encoding="utf-8"?>
<!-- Generator: Adobe Illustrator 21.0.0, SVG Export Plug-In . SVG Version: 6.00 Build 0)  -->
<svg version="1.1" id="Layer_1" xmlns="http://www.w3.org/2000/svg" xmlns:xlink="http://www.w3.org/1999/xlink" x="0px" y="0px"
	 viewBox="0 0 20.9 21.1" style="enable-background:new 0 0 20.9 21.1;" xml:space="preserve">
<style type="text/css">
	.st0{fill:#55C5D8;}
</style>
<g>
	<g>
		<path class="st0" d="M7.9,7.7c0.2-0.2,0.5-0.5,0.6-0.9c0.5-1.3,0.3-1.5,0.3-1.5c-0.3-0.7-1.1-1.7-2-2.7c-1-1-1.9-1.7-2.7-2
			c0,0-1.2-0.4-2.1,0.5c0,0,0,0,0,0c0,0,0,0,0,0l0,0C1.9,1.2,1.8,1.3,1.7,1.5L7.9,7.7z"/>
		<path class="st0" d="M20.6,17c-0.3-0.7-1.1-1.7-2-2.7c-1-1-1.9-1.7-2.7-2c0,0-0.2-0.2-1.5,0.3c-0.4,0.1-0.7,0.4-0.9,0.6l6.2,6.2
			c0.1-0.1,0.2-0.2,0.4-0.3h0c0,0,0,0,0,0c0,0,0,0,0,0C20.9,18.1,20.6,17,20.6,17z"/>
		<path class="st0" d="M12.8,14.1c-0.2,0.3-0.5,0.4-0.9,0.4c-1.1,0-2.8-1-3.5-1.7C7.4,11.8,6,9.1,7,8.3c0.1,0,0.1-0.1,0.2-0.1l-6-6
			C0.3,3.5,0.3,4.7,0.3,4.7s-0.2,5,5.5,10.7c5.4,5.4,10.1,5.5,10.6,5.5c0,0,0,0,0,0s0,0,0,0c0.1,0,1.2,0,2.5-0.9l-6-6
			C12.9,14,12.8,14,12.8,14.1z"/>
	</g>
</g>
</svg>
