<?xml version="1.0" encoding="utf-8"?>
<!-- Generator: Adobe Illustrator 21.0.0, SVG Export Plug-In . SVG Version: 6.00 Build 0)  -->
<svg version="1.1" id="Layer_1" xmlns="http://www.w3.org/2000/svg" xmlns:xlink="http://www.w3.org/1999/xlink" x="0px" y="0px"
	 viewBox="0 0 30.3 13" style="enable-background:new 0 0 30.3 13;" xml:space="preserve">
<style type="text/css">
	.st0{fill:none;stroke:#575757;stroke-width:0.5;stroke-miterlimit:10;}
</style>
<g>
	<path class="st0" d="M20.4,0.7c0.9,1.1,1.4,2.5,1.4,4c0,3.5-2.8,6.4-6.4,6.4S9,8.2,9,4.7C9,3.3,9.4,2.1,10.2,1
		C4.4,2.5,0.4,6.7,0.4,6.7c16.1,13.5,29.6,0,29.6,0C26.8,3.9,23.5,1.4,20.4,0.7z"/>
	<path class="st0" d="M15.4,11c3.5,0,6.4-2.8,6.4-6.4c0-1.5-0.5-2.9-1.4-4C16.7-0.1,13.2,0.2,10.2,1C9.4,2.1,9,3.3,9,4.7
		C9,8.2,11.9,11,15.4,11z"/>
	<ellipse class="st0" cx="15.5" cy="5" rx="1.3" ry="1.4"/>
</g>
</svg>
