<?xml version="1.0" encoding="utf-8"?>
<!-- Generator: Adobe Illustrator 21.0.0, SVG Export Plug-In . SVG Version: 6.00 Build 0)  -->
<svg version="1.1" id="Layer_1" xmlns="http://www.w3.org/2000/svg" xmlns:xlink="http://www.w3.org/1999/xlink" x="0px" y="0px"
	 viewBox="0 0 141.5 50.7" style="enable-background:new 0 0 141.5 50.7;" xml:space="preserve">
<style type="text/css">
	.st0{fill:#FFFFFF;}
	.st1{font-family:'PTSans-Narrow';}
	.st2{font-size:10.3865px;}
</style>
<g>
	<path class="st0" d="M103.1,17.9c0-8.9-9-16.1-20.1-16.1v2.6c9.3,0,16.9,6.1,16.9,13.5c0,7.2-6.9,13-15.7,13.5L71.7,1.9h-1.9
		L57.2,31.4c-8.7-0.5-15.6-6.4-15.6-13.5c0-7.5,7.6-13.5,16.9-13.5V1.8C47.4,1.8,38.4,9,38.4,17.9c0,8.3,7.8,15.1,17.8,16l0,0h0.3
		c0.7,0.1,1.3,0.1,2,0.1V34h1.9l3.6-8.7h13.1l3.7,8.7H83V34c0.7,0,1.3,0,2-0.1h0.2l0,0C95.3,33.1,103.1,26.2,103.1,17.9z M65.4,22
		l3.9-9.5l1.3-3.1h0.1l1.3,3l4,9.6H65.4z"/>
	<text transform="matrix(1.2454 0 0 1 0 48.1217)" class="st0 st1 st2">Comité Colombiano de Arbitraje</text>
</g>
</svg>
