<?xml version="1.0" encoding="utf-8"?>
<!-- Generator: Adobe Illustrator 21.0.0, SVG Export Plug-In . SVG Version: 6.00 Build 0)  -->
<svg version="1.1" id="Capa_1" xmlns="http://www.w3.org/2000/svg" xmlns:xlink="http://www.w3.org/1999/xlink" x="0px" y="0px"
	 viewBox="0 0 770.3 475.9" style="enable-background:new 0 0 770.3 475.9;" xml:space="preserve">
<style type="text/css">
	.st0{fill:#FFFFFF;}
	.st1{fill:none;stroke:#FFFFFF;stroke-width:3.4779;}
	.st2{fill:none;stroke:#FFFFFF;stroke-width:1.739;}
</style>
<path class="st0" d="M61.8,355.9c-0.4,5.5-1.7,9.6-3.9,12.4c-2.2,2.8-5.3,4.2-9.2,4.2c-4.7,0-8.1-2-10.3-5.9
	c-2.2-3.9-3.3-10.1-3.3-18.4c0-8.3,1.1-14.4,3.3-18.3c2.2-3.9,5.6-5.8,10.3-5.8c3.9,0,6.9,1.3,9.2,3.8c2.3,2.5,3.4,6.1,3.5,10.6
	l-4,0c-0.2-3.5-1-6.1-2.5-8c-1.5-1.9-3.6-2.9-6.2-2.9c-3.3,0-5.7,1.7-7.2,5c-1.6,3.3-2.4,8.6-2.4,15.6c0,7.1,0.8,12.3,2.3,15.6
	c1.6,3.3,4,5,7.2,5c2.7,0,4.8-1.1,6.4-3.4c1.6-2.2,2.5-5.4,2.8-9.6L61.8,355.9z"/>
<path class="st0" d="M68.2,354.4c0-6,0.9-10.5,2.7-13.5c1.8-3,4.6-4.5,8.2-4.5c3.6,0,6.3,1.5,8.1,4.5c1.8,3,2.7,7.5,2.7,13.6
	c0,6-0.9,10.5-2.7,13.5c-1.8,3-4.5,4.5-8.2,4.5c-3.7,0-6.4-1.5-8.2-4.5C69,365,68.1,360.5,68.2,354.4 M72,354.5
	c0,4.8,0.6,8.5,1.8,11c1.2,2.5,2.9,3.7,5.2,3.7c2.3,0,4.1-1.2,5.3-3.7c1.2-2.5,1.8-6.1,1.8-11c0-4.8-0.6-8.5-1.8-11
	c-1.2-2.5-2.9-3.7-5.2-3.7c-2.3,0-4.1,1.2-5.2,3.7C72.6,346,72,349.6,72,354.5"/>
<path class="st0" d="M96.7,371.5l0-34.3l3.4,0l0,3.8c1.1-1.6,2.4-2.7,3.8-3.5c1.4-0.8,2.9-1.1,4.6-1.1c1.7,0,3.3,0.4,4.5,1.3
	c1.3,0.8,2.2,2.1,2.8,3.6c1.1-1.7,2.4-2.9,3.8-3.7c1.4-0.8,3-1.2,4.8-1.2c2.7,0,4.7,0.9,6,2.6c1.3,1.7,1.9,4.5,1.9,8.3l0,24.3
	l-3.6,0l0-23.1c0-3.7-0.4-6-1.2-7.1c-0.8-1.1-2.1-1.6-4.1-1.6c-1.8,0-3.4,0.6-4.9,1.8c-1.5,1.2-2.2,2.4-2.2,3.6l0,26.4h-3.6l0-23.1
	c0-3.7-0.4-6.1-1.1-7.1c-0.8-1.1-2.1-1.6-4.1-1.6c-1.8,0-3.4,0.6-4.9,1.8c-1.5,1.2-2.2,2.4-2.2,3.8l0,26.3L96.7,371.5z"/>
<path class="st0" d="M140.8,330.9l0-6l4.1,0l0,6L140.8,330.9z M140.9,371.6l0-34.3h3.8l0,34.3H140.9z"/>
<path class="st0" d="M162.4,371.8c-0.4,0.1-0.9,0.2-1.3,0.2c-0.4,0.1-0.9,0.1-1.5,0.1c-2.1,0-3.5-0.5-4.2-1.5
	c-0.8-1-1.1-3.4-1.1-7.3l0-23h-3.4l0-3.1l3.4,0l0-9.7l3.6,0l0,9.7l4.6,0l0,3.1h-4.6l0,23.8c0,2.3,0.2,3.7,0.6,4.3
	c0.4,0.5,1.1,0.8,2.2,0.8c0.2,0,0.5,0,0.8,0c0.3,0,0.6-0.1,1-0.1V371.8z"/>
<path class="st0" d="M186.6,360.6c-0.2,3.9-1.2,6.8-2.8,8.9c-1.7,2-4,3.1-7,3c-3.4,0-5.9-1.5-7.6-4.4c-1.6-2.9-2.5-7.5-2.4-13.6
	c0-6.1,0.9-10.7,2.5-13.6c1.7-2.9,4.3-4.4,7.8-4.4c3.2,0,5.6,1.3,7.2,3.8c1.6,2.5,2.5,6.2,2.5,11.1v2.9l-16.1,0l0,1.9
	c0,4.4,0.5,7.7,1.5,9.9c1,2.2,2.6,3.3,4.6,3.3c1.9,0,3.3-0.7,4.4-2.3c1.1-1.5,1.7-3.6,1.8-6.4L186.6,360.6z M170.6,351.1l12.4,0
	c0-0.2,0-0.4,0-0.8c0-0.3,0-0.6,0-0.7c0-3.2-0.5-5.6-1.6-7.4c-1.1-1.7-2.5-2.6-4.5-2.6c-2.1,0-3.7,0.9-4.7,2.9
	c-1.1,1.9-1.6,4.7-1.6,8.3L170.6,351.1z M173.5,333.5l5.3-8.3h4.9l-7.5,8.3L173.5,333.5z"/>
<path class="st0" d="M234.1,356.1c-0.4,5.5-1.7,9.6-3.9,12.4c-2.2,2.8-5.3,4.2-9.2,4.2c-4.7,0-8.1-2-10.3-5.9
	c-2.2-3.9-3.3-10.1-3.3-18.4c0-8.3,1.1-14.4,3.3-18.3c2.2-3.9,5.6-5.8,10.3-5.8c3.9,0,6.9,1.3,9.2,3.8c2.3,2.5,3.4,6.1,3.5,10.6
	l-4,0c-0.2-3.5-1-6.1-2.5-8c-1.5-1.9-3.6-2.9-6.2-2.9c-3.3,0-5.7,1.7-7.2,5c-1.6,3.3-2.4,8.6-2.4,15.6c0,7.1,0.8,12.3,2.3,15.6
	c1.6,3.3,4,5,7.2,5c2.7,0,4.8-1.1,6.4-3.4c1.6-2.2,2.5-5.4,2.8-9.6L234.1,356.1z"/>
<path class="st0" d="M240.5,354.6c0-6,0.9-10.5,2.7-13.6c1.8-3,4.6-4.5,8.2-4.5c3.6,0,6.3,1.5,8.1,4.5c1.8,3,2.7,7.5,2.7,13.6
	c0,6-0.9,10.5-2.7,13.5c-1.8,3-4.5,4.5-8.2,4.5c-3.7,0-6.4-1.5-8.2-4.5C241.4,365.2,240.5,360.6,240.5,354.6 M244.4,354.6
	c0,4.8,0.6,8.5,1.8,11c1.2,2.5,2.9,3.7,5.2,3.7c2.3,0,4.1-1.2,5.3-3.7c1.2-2.5,1.8-6.1,1.8-11c0-4.8-0.6-8.5-1.8-11
	c-1.2-2.5-2.9-3.7-5.2-3.7c-2.3,0-4.1,1.2-5.2,3.7C245,346.1,244.4,349.8,244.4,354.6"/>
<rect x="270.5" y="325.1" class="st0" width="3.7" height="46.6"/>
<path class="st0" d="M282.3,354.7c0-6,0.9-10.5,2.7-13.6c1.8-3,4.6-4.5,8.2-4.5c3.6,0,6.3,1.5,8.1,4.5c1.8,3,2.7,7.5,2.7,13.6
	c0,6-0.9,10.5-2.7,13.5c-1.8,3-4.5,4.5-8.2,4.5c-3.7,0-6.4-1.5-8.2-4.5C283.2,365.2,282.3,360.7,282.3,354.7 M286.2,354.7
	c0,4.8,0.6,8.5,1.8,11c1.2,2.5,2.9,3.7,5.2,3.7c2.3,0,4.1-1.2,5.3-3.7c1.2-2.5,1.8-6.1,1.8-11c0-4.8-0.6-8.5-1.8-11
	c-1.2-2.5-2.9-3.7-5.2-3.7s-4.1,1.2-5.2,3.7C286.8,346.2,286.2,349.8,286.2,354.7"/>
<path class="st0" d="M310.9,371.8l0-34.3l3.4,0l0,3.8c1.1-1.6,2.4-2.7,3.8-3.5c1.4-0.8,2.9-1.1,4.6-1.1c1.7,0,3.3,0.4,4.5,1.3
	c1.3,0.8,2.2,2.1,2.8,3.6c1.1-1.7,2.4-2.9,3.8-3.7c1.4-0.8,3-1.2,4.8-1.2c2.7,0,4.7,0.9,6,2.6c1.3,1.7,1.9,4.5,1.9,8.3l0,24.3h-3.6
	l0-23.1c0-3.7-0.4-6-1.2-7.1c-0.8-1.1-2.1-1.6-4.1-1.6c-1.8,0-3.4,0.6-4.9,1.8c-1.5,1.2-2.2,2.4-2.2,3.6l0,26.4l-3.6,0l0-23.1
	c0-3.7-0.4-6.1-1.1-7.1c-0.8-1-2.1-1.6-4.1-1.6c-1.8,0-3.4,0.6-4.9,1.8c-1.5,1.2-2.2,2.5-2.2,3.8l0,26.3L310.9,371.8z"/>
<path class="st0" d="M354.1,371.8l0-46.6h3.6l0,15.5c0.8-1.4,1.8-2.5,3-3.1c1.2-0.7,2.6-1,4.1-1c3.5,0,6.1,1.5,7.8,4.5
	c1.7,3,2.6,7.6,2.6,13.7c0,6.3-0.8,10.8-2.5,13.7c-1.6,2.9-4.2,4.3-7.8,4.3c-1.5,0-2.9-0.4-4.1-1.1c-1.2-0.7-2.3-1.9-3.3-3.4l0,3.6
	L354.1,371.8z M357.7,354.6c0,5.4,0.5,9.3,1.6,11.6c1.1,2.3,2.8,3.4,5.3,3.4c2.4,0,4.1-1.2,5.2-3.5c1.1-2.3,1.6-6.1,1.6-11.4
	c0-5.1-0.6-8.9-1.7-11.4c-1.1-2.4-2.8-3.6-5.2-3.6c-2.4,0-4.2,1.1-5.2,3.4C358.2,345.4,357.7,349.2,357.7,354.6"/>
<path class="st0" d="M383,331.2l0-6h4.1l0,6H383z M383.1,371.8l0-34.3l3.8,0l0,34.3L383.1,371.8z"/>
<path class="st0" d="M415,372c-0.6,0.1-1,0.2-1.4,0.2c-0.4,0-0.8,0.1-1.1,0.1c-0.9,0-1.7-0.2-2.3-0.7c-0.6-0.5-1.1-1.2-1.4-2.2
	c-1,1.2-2.1,2-3.3,2.6c-1.3,0.6-2.6,0.9-4.2,0.9c-2.5,0-4.4-0.8-5.8-2.5c-1.4-1.7-2.1-4-2.1-7c0-2.6,0.6-4.7,1.9-6.3
	c1.3-1.6,3.4-3,6.5-4.2c0.6-0.2,1.5-0.6,2.6-1c3-1,4.5-2.4,4.5-4.1l0-2.9c0-1.8-0.4-3.2-1.2-4c-0.8-0.8-2.1-1.2-3.8-1.3
	c-1.9,0-3.3,0.5-4.3,1.6c-1,1.1-1.5,2.7-1.6,4.8l-3.5,0v-0.7c0-2.6,0.9-4.7,2.6-6.3c1.7-1.5,4-2.3,6.9-2.3c1.7,0,3.2,0.2,4.3,0.6
	c1.2,0.4,2.1,1.1,2.8,2c0.5,0.6,0.8,1.3,1,2.2c0.2,0.8,0.3,2,0.3,3.6v1.8l0,18.6c0,1.7,0.2,2.8,0.5,3.2c0.3,0.4,0.9,0.6,1.8,0.6h0.4
	V372z M408.7,353.5c-5.2,2.1-8.5,3.7-9.7,5c-1.3,1.3-1.9,2.9-1.9,4.9c0,1.9,0.4,3.5,1.3,4.6c0.9,1.1,2.1,1.7,3.6,1.7
	c2.3,0,4-0.8,5.1-2.5c1.1-1.7,1.6-4.3,1.6-7.9L408.7,353.5z"/>
<path class="st0" d="M436.1,371.9l0-23.1c0-3.6-0.4-6-1.1-7.1c-0.7-1.1-2.1-1.7-4-1.7c-1.8,0-3.4,0.6-4.9,1.8
	c-1.4,1.2-2.2,2.5-2.2,3.9l0,26.2h-3.7l0-34.3h3.4l0,3.8c1.1-1.6,2.4-2.8,3.7-3.5c1.3-0.7,2.9-1.1,4.6-1.1c2.8,0,4.8,0.9,6.1,2.6
	c1.3,1.7,1.9,4.5,1.9,8.3l0,24.3H436.1z"/>
<path class="st0" d="M446.5,354.8c0-6,0.9-10.5,2.7-13.5c1.8-3,4.6-4.5,8.2-4.5c3.6,0,6.3,1.5,8.1,4.5c1.8,3,2.7,7.5,2.7,13.6
	c0,6-0.9,10.5-2.7,13.5c-1.8,3-4.5,4.5-8.2,4.5c-3.7,0-6.4-1.5-8.2-4.5C447.4,365.4,446.5,360.8,446.5,354.8 M450.4,354.8
	c0,4.8,0.6,8.5,1.8,11c1.2,2.5,2.9,3.7,5.2,3.7c2.3,0,4.1-1.2,5.3-3.7c1.2-2.5,1.8-6.1,1.8-11c0-4.8-0.6-8.5-1.8-11
	c-1.2-2.5-2.9-3.7-5.2-3.7c-2.3,0-4.1,1.2-5.2,3.7C451,346.3,450.4,350,450.4,354.8"/>
<path class="st0" d="M509.7,325.3l0,46.6h-3.6l0-3.6c-1,1.5-2.1,2.7-3.3,3.4c-1.2,0.7-2.5,1.1-4.1,1.1c-3.5,0-6.1-1.4-7.7-4.3
	c-1.6-2.9-2.4-7.4-2.4-13.7c0-6.1,0.9-10.7,2.6-13.7c1.7-3,4.3-4.5,7.8-4.5c1.6,0,3,0.4,4.1,1c1.2,0.7,2.2,1.7,3,3.1l0-15.5
	L509.7,325.3z M506.1,354.8c0-5.4-0.5-9.2-1.6-11.5c-1.1-2.3-2.8-3.4-5.2-3.4c-2.4,0-4.1,1.2-5.2,3.6c-1.1,2.4-1.7,6.2-1.7,11.3
	c0,5.3,0.5,9.1,1.6,11.4c1.1,2.3,2.8,3.5,5.2,3.5c2.5,0,4.2-1.1,5.3-3.4C505.6,364,506.1,360.2,506.1,354.8"/>
<path class="st0" d="M536.5,361c-0.2,3.9-1.2,6.8-2.8,8.9c-1.7,2-4,3.1-7,3c-3.4,0-5.9-1.5-7.6-4.4c-1.6-2.9-2.5-7.5-2.4-13.6
	c0-6.1,0.9-10.7,2.5-13.6c1.7-2.9,4.3-4.4,7.8-4.4c3.2,0,5.6,1.3,7.2,3.8c1.6,2.5,2.5,6.2,2.5,11.1v2.9l-16.1,0l0,1.9
	c0,4.4,0.5,7.7,1.5,9.9c1,2.2,2.6,3.3,4.6,3.3c1.9,0,3.3-0.7,4.4-2.3c1.1-1.5,1.7-3.6,1.8-6.4L536.5,361z M520.6,351.4l12.4,0
	c0-0.2,0-0.4,0-0.8c0-0.3,0-0.6,0-0.7c0-3.2-0.5-5.6-1.6-7.4c-1.1-1.7-2.5-2.6-4.5-2.6c-2.1,0-3.7,0.9-4.7,2.9
	c-1.1,1.9-1.6,4.7-1.6,8.3L520.6,351.4z"/>
<path class="st0" d="M555.1,372l12.4-46.6l4.5,0l12.2,46.6h-3.9l-3.9-14.6l-13.9,0l-4,14.6H555.1z M563.3,353.8l12.4,0l-6.2-23.3
	L563.3,353.8z"/>
<path class="st0" d="M589.2,372l0-34.3h3.6l0,3.8c0.8-1.5,1.7-2.5,2.9-3.2c1.2-0.7,2.7-1,4.5-1h0.7l0,3.7c-3.1,0.1-5.2,0.9-6.4,2.4
	c-1.1,1.5-1.7,4.4-1.7,8.9l0,19.9H589.2z"/>
<path class="st0" d="M605.9,372l0-46.6h3.6l0,15.5c0.8-1.4,1.8-2.5,3-3.1c1.2-0.7,2.6-1,4.1-1c3.5,0,6.1,1.5,7.8,4.5
	c1.7,3,2.6,7.6,2.6,13.7c0,6.3-0.8,10.8-2.5,13.7c-1.6,2.9-4.2,4.3-7.8,4.3c-1.5,0-2.9-0.4-4.1-1.1c-1.2-0.7-2.3-1.9-3.3-3.4l0,3.6
	L605.9,372z M609.5,354.9c0,5.4,0.5,9.3,1.6,11.6c1.1,2.3,2.8,3.4,5.3,3.4c2.4,0,4.1-1.2,5.2-3.5c1.1-2.3,1.6-6.1,1.6-11.4
	c0-5.1-0.6-8.9-1.7-11.4c-1.1-2.4-2.8-3.6-5.2-3.6c-2.4,0-4.2,1.1-5.2,3.4C610.1,345.7,609.5,349.5,609.5,354.9"/>
<path class="st0" d="M634.9,331.4l0-6h4.1l0,6H634.9z M635,372.1l0-34.3l3.8,0l0,34.3L635,372.1z"/>
<path class="st0" d="M656.6,372.3c-0.4,0.1-0.9,0.2-1.3,0.2c-0.4,0-0.9,0.1-1.5,0.1c-2.1,0-3.5-0.5-4.2-1.5c-0.8-1-1.1-3.4-1.1-7.3
	l0-23l-3.4,0l0-3.1h3.4l0-9.7h3.6l0,9.7h4.6l0,3.1l-4.6,0l0,23.8c0,2.3,0.2,3.7,0.6,4.3c0.4,0.5,1.1,0.8,2.2,0.8c0.2,0,0.5,0,0.8,0
	c0.3,0,0.6-0.1,1-0.1V372.3z"/>
<path class="st0" d="M661.8,372.1l0-34.3l3.6,0l0,3.8c0.8-1.5,1.7-2.5,2.9-3.2c1.2-0.7,2.7-1,4.5-1h0.7l0,3.7
	c-3.1,0.1-5.2,0.9-6.4,2.4c-1.1,1.5-1.7,4.4-1.7,8.9l0,19.9L661.8,372.1z"/>
<path class="st0" d="M697.7,372.3c-0.6,0.1-1,0.2-1.4,0.2c-0.4,0-0.8,0.1-1.1,0.1c-0.9,0-1.7-0.2-2.3-0.7c-0.6-0.5-1.1-1.2-1.4-2.2
	c-1,1.2-2.1,2-3.3,2.6c-1.3,0.6-2.6,0.9-4.2,0.9c-2.5,0-4.4-0.8-5.8-2.5c-1.4-1.7-2.1-4-2.1-7c0-2.6,0.6-4.7,1.9-6.3
	c1.3-1.6,3.4-3,6.5-4.2c0.6-0.2,1.5-0.6,2.6-0.9c3-1,4.5-2.4,4.5-4.1l0-2.9c0-1.8-0.4-3.2-1.2-4c-0.8-0.8-2.1-1.3-3.8-1.3
	c-1.9,0-3.3,0.5-4.3,1.6c-1,1.1-1.5,2.7-1.6,4.8h-3.5v-0.7c0-2.6,0.9-4.7,2.6-6.3c1.7-1.6,4-2.3,6.9-2.3c1.7,0,3.2,0.2,4.3,0.6
	c1.2,0.4,2.1,1.1,2.8,2c0.5,0.6,0.8,1.3,1,2.2c0.2,0.8,0.3,2,0.3,3.6v1.8l0,18.6c0,1.7,0.2,2.8,0.5,3.2c0.3,0.4,0.9,0.6,1.8,0.6h0.4
	V372.3z M691.4,353.7c-5.2,2.1-8.5,3.7-9.7,5c-1.3,1.3-1.9,2.9-1.9,4.9c0,1.9,0.4,3.5,1.3,4.6c0.9,1.1,2.1,1.7,3.6,1.7
	c2.3,0,4-0.8,5.1-2.5c1.1-1.7,1.6-4.3,1.6-7.9L691.4,353.7z"/>
<path class="st0" d="M708.6,375.7c0,3.4-0.5,5.6-1.4,6.7c-0.9,1.1-2.6,1.7-5,1.7c-0.1,0-0.3,0-0.6,0c-0.3,0-0.5,0-0.6,0l0-3.5
	c0.1,0,0.2,0,0.3,0.1c0.4,0,0.7,0.1,0.9,0.1c1,0,1.7-0.3,2-1c0.4-0.6,0.6-2.3,0.6-4.9v-0.9l0-36.1l3.7,0L708.6,375.7z M704.8,331.5
	l0-6h4.1l0,6H704.8z"/>
<path class="st0" d="M736.4,361.2c-0.2,3.9-1.2,6.9-2.8,8.9c-1.7,2-4,3.1-7,3.1c-3.4,0-5.9-1.5-7.6-4.4c-1.6-2.9-2.5-7.5-2.4-13.6
	c0-6.1,0.9-10.7,2.5-13.6c1.7-2.9,4.3-4.4,7.8-4.4c3.2,0,5.6,1.3,7.2,3.8c1.6,2.5,2.5,6.2,2.5,11.1v2.9l-16.1,0l0,1.9
	c0,4.4,0.5,7.7,1.5,9.9c1,2.2,2.6,3.3,4.6,3.3c1.9,0,3.3-0.8,4.4-2.3c1.1-1.5,1.7-3.6,1.8-6.4H736.4z M720.4,351.6l12.4,0
	c0-0.2,0-0.4,0-0.8c0-0.3,0-0.6,0-0.7c0-3.2-0.5-5.6-1.6-7.4c-1.1-1.7-2.5-2.6-4.5-2.6c-2.1,0-3.7,0.9-4.7,2.9
	c-1.1,1.9-1.6,4.7-1.6,8.3L720.4,351.6z"/>
<path class="st1" d="M340.1,93.3l-3,11.2c-2.8,0-29.8-1.6-47.8,7.9c-14.5,7.6-25.9,18.3-34.2,32.2c-8.5,14-12.7,29.4-12.8,46.2
	c0,19,5.4,36.3,16.3,51.7c13.5,19.2,31.8,29.6,55,33.7c6.6,1.1,9.7,1.1,21.6,1.1l-1,9.9c-3.6,0.1-3.3,0.2-5.7,0.2
	c-18.8,0-35.4-4-49.8-12c-15.9-8.7-28.3-21.3-37.4-37.8c-8-14.7-12-30.4-12-47.2c0-26,8.9-48.5,26.5-67.4
	c18.6-19.9,43-29.8,73.4-29.8C330.8,93.1,336.5,93.2,340.1,93.3z"/>
<path class="st1" d="M442.8,93.1c30.4,0,54.8,9.9,73.4,29.8c17.6,18.9,26.5,41.4,26.5,67.4c0,16.8-4,32.5-12,47.2
	c-9,16.5-21.5,29.1-37.3,37.8c-14.4,8-31,12-49.8,12c-2.4,0-2.1-0.1-5.7-0.2l-1-9.9c11.8,0,14.9,0,21.6-1.1
	c23.1-4.1,41.4-14.5,55-33.7c10.9-15.4,16.3-32.7,16.3-51.7c0-16.8-4.3-32.1-12.8-46.2c-8.3-13.9-19.8-24.6-34.2-32.2
	c-18-9.5-45.1-7.9-47.8-7.9l-3-11.2C435.3,93.2,441,93.1,442.8,93.1z"/>
<path class="st2" d="M437.2,287.2l-14-47.2l-75.1-0.1l-14.1,47.2l-13.1,0l59.5-194.3l10.9,0l59.1,194.4L437.2,287.2z M385.8,112.4
	L352,226.8l67.4,0.1L385.8,112.4z"/>
<path class="st0" d="M340.1,93.6l-3,11.2c-2.8,0-29.8-1.6-47.8,7.9c-14.5,7.6-25.9,18.3-34.2,32.2c-8.5,14-12.7,29.4-12.8,46.2
	c0,19,5.4,36.3,16.3,51.7c13.5,19.2,31.8,29.6,55,33.7c6.6,1.1,9.7,1.1,21.6,1.1l-1,9.9c-3.6,0.1-3.3,0.2-5.7,0.2
	c-18.8,0-35.4-4-49.8-12c-15.9-8.7-28.3-21.3-37.4-37.8c-8-14.7-12-30.4-12-47.2c0-26,8.9-48.5,26.5-67.4
	c18.6-19.9,43-29.8,73.4-29.8C330.8,93.4,336.5,93.5,340.1,93.6"/>
<path class="st0" d="M442.8,93.4c30.4,0,54.8,9.9,73.4,29.8c17.6,18.9,26.5,41.4,26.5,67.4c0,16.8-4,32.5-12,47.2
	c-9,16.5-21.5,29.1-37.3,37.8c-14.4,8-31,12-49.8,12c-2.4,0-2.1-0.1-5.7-0.2l-1-9.9c11.8,0,14.9,0,21.6-1.1
	c23.1-4.1,41.4-14.5,55-33.7c10.9-15.4,16.3-32.7,16.3-51.7c0-16.8-4.3-32.1-12.8-46.2c-8.3-13.9-19.8-24.6-34.2-32.2
	c-18-9.5-45.1-7.9-47.8-7.9l-3-11.2C435.3,93.5,441,93.4,442.8,93.4"/>
<path class="st0" d="M437.2,287.5l-14-47.2l-75.1-0.1l-14.1,47.2l-13.1,0l59.5-194.3l10.9,0l59.1,194.4L437.2,287.5z M385.8,112.7
	L352,227.1l67.4,0.1L385.8,112.7z"/>
</svg>
